# xmcd
#
# Track frame offsets:
#	150
#	13489
#	22945
#	33397
#	43643
#	52683
#	62729
#	74677
#	88631
#	99784
#	111994
#	121619
#	130873
#	145396
#	157815
#	167985
#	180934
#	193295
#	205109
#	217882
#
# Disc length: 3052 seconds
#
# Revision: 0
# Processed by: cddbd v1.5.2PL0 Copyright (c) Steve Scherf et al.
# Submitted via: dBpowerAMP V4.0
#
DISCID=0f0bea14
DTITLE=Mickey Gilley - Valley of Tears
DYEAR=2004
DGENRE=Country
TTITLE0=C. C. Rider
TTITLE1=Caught in the Middle
TTITLE2=Move on Down the Line
TTITLE3=Forgive
TTITLE4=I Ain't Goin' Home
TTITLE5=I Miss You So
TTITLE6=I Need Your Love
TTITLE7=I'll Make it All Up To You
TTITLE8=It All Depends
TTITLE9=Just Out Of Reach
TTITLE10=Night After Night
TTITLE11=No Greater Love
TTITLE12=Rockey Top
TTITLE13=I Still Care About You
TTITLE14=That's How It's Got To Be
TTITLE15=That Heart Belongs To Me
TTITLE16=Turn Around (I'll Be Following You)
TTITLE17=Valley Of Tears
TTITLE18=Wild Side Of Life
TTITLE19=Without You
EXTD=
EXTT0=
EXTT1=
EXTT2=
EXTT3=
EXTT4=
EXTT5=
EXTT6=
EXTT7=
EXTT8=
EXTT9=
EXTT10=
EXTT11=
EXTT12=
EXTT13=
EXTT14=
EXTT15=
EXTT16=
EXTT17=
EXTT18=
EXTT19=
PLAYORDER=
